<svg id="Layer_1" data-name="Layer 1" xmlns="http://www.w3.org/2000/svg" viewBox="0 0 157.79 50"><defs><style>.cls-1{fill:#b68150;}</style></defs><path class="cls-1" d="M40.3,1.7V8A23.8,23.8,0,0,0,24.6,1.7H.8v47H8.4V42.5a23.47,23.47,0,0,0,32,0v6.2H48V1.7Zm-16,41.2A17.65,17.65,0,1,1,42,25.2,17.67,17.67,0,0,1,24.3,42.9Zm0-27.8a10.47,10.47,0,0,1,9.2,5.7H37a13.46,13.46,0,0,0-26.2,4.4,6.6,6.6,0,0,0,.1,1.4H34.3a10.14,10.14,0,0,1-19.2,2.9H11.6a13.48,13.48,0,0,0,26.3-4.2,8.6,8.6,0,0,0-.1-1.6H14.4A9.87,9.87,0,0,1,24.3,15.1Z"/><path class="cls-1" d="M87.1,13c-1.6-2.7-6-5.2-11.1-5.2-6.6,0-9.7,2.8-9.7,6.2,0,4.1,4.8,5.2,10.5,5.9,9.8,1.2,18.9,3.8,18.9,15,0,10.5-9.3,15-19.7,15-9.6,0-17-3-20.5-11.5l7.4-3.8c2,5.1,7.4,7.4,13.1,7.4s10.8-1.9,10.8-7.1c0-4.4-4.6-6.2-10.9-6.9-9.6-1.1-18.5-3.7-18.5-14.2C57.4,4.1,66.9.2,75.6.1c7.3,0,14.9,2.1,18.5,9.3Z"/><path class="cls-1" d="M147.9,48.7V1.7h8.8v47Z"/><path class="cls-1" d="M124.6,1.6c-7.4,0-14.8.1-22.2.1v47h8.9V10.1h13.3c11.3,0,11.3,16.6,0,16.6H114.2c.5,3.2,2.4,8.1,8.9,8.1h1.5C147.7,34.9,147.6,1.6,124.6,1.6Z"/></svg>